<svg xmlns="http://www.w3.org/2000/svg" xmlns:xlink="http://www.w3.org/1999/xlink" width="20" height="20.001" viewBox="0 0 20 20.001"><defs><style>.a{fill:url(#a);}.b{fill:none;}</style><linearGradient id="a" x1="0.5" y1="1" x2="0.5" gradientUnits="objectBoundingBox"><stop offset="0" stop-color="#62bcf7"/><stop offset="1" stop-color="#6bccf4"/></linearGradient></defs><g transform="translate(-1148 -351.999)"><path class="a" d="M1758.038,776.721a3.206,3.206,0,0,1-2.979-1.753,3.151,3.151,0,0,1-.362-1.367c-.007-.14-.009-.282-.009-.423q0-3.187,0-6.374a3.277,3.277,0,0,1,.014-.365.986.986,0,0,1,.972-.915c.09,0,.18,0,.27,0h5.887q2.982,0,5.963,0a1.306,1.306,0,0,1,.8.222.816.816,0,0,1,.344.578,2.867,2.867,0,0,1,.022.383c0,2.144,0,4.288,0,6.431a3.474,3.474,0,0,1-1.094,2.66,3.369,3.369,0,0,1-2.38.932q-2.1,0-4.2.006Q1759.664,776.732,1758.038,776.721Zm2.957-8.021a1.371,1.371,0,0,0-.014,2.138.176.176,0,0,1,.055.16,6.822,6.822,0,0,0-.438,2.447c-.005.233.039.282.277.284.309,0,.617,0,.926,0v0c.328,0,.656,0,.984,0,.183,0,.275-.078.266-.268a6.8,6.8,0,0,0-.426-2.28.271.271,0,0,1,.086-.36,1.265,1.265,0,0,0,.137-1.825,1.323,1.323,0,0,0-1.853-.294Zm2.965-4.163c0-.834-.036-1.656.009-2.473a2.2,2.2,0,0,0-2.886-2.041,1.89,1.89,0,0,0-1.2.986,2.208,2.208,0,0,0-.19.832c-.024.891-.009,1.783-.009,2.692h-2.662v-1.48c0-.443.01-.887,0-1.328a4.449,4.449,0,0,1,3.043-4.31,5.1,5.1,0,0,1,5.809,1.7,3.684,3.684,0,0,1,.741,2.132c.027,1.065.007,2.13.007,3.2a.81.81,0,0,1-.011.092Z" transform="translate(-603.688 -405.111)"/><rect class="b" width="20" height="20" transform="translate(1148.001 352)"/></g></svg>