<svg xmlns="http://www.w3.org/2000/svg" xmlns:xlink="http://www.w3.org/1999/xlink" width="20" height="20" viewBox="0 0 20 20"><defs><style>.a{fill:url(#a);}.b{fill:none;}</style><linearGradient id="a" x1="0.5" y1="1" x2="0.5" gradientUnits="objectBoundingBox"><stop offset="0" stop-color="#62bcf7"/><stop offset="1" stop-color="#6bccf4"/></linearGradient></defs><g transform="translate(-1147 -292)"><path class="a" d="M1758.221,707.193a5.879,5.879,0,0,1,.026-8.759,6.039,6.039,0,0,1,8.288.455,5.813,5.813,0,0,1-.1,8.2c.385.294.776.576,1.148.88a10.009,10.009,0,0,1,3.033,3.736,3.625,3.625,0,0,1,.261,2.545,3.043,3.043,0,0,1-2.5,2.141,12,12,0,0,1-2.433.219q-4.614,0-9.228-.091a5.459,5.459,0,0,1-1.66-.323,2.771,2.771,0,0,1-1.694-4.091,8.92,8.92,0,0,1,2.357-3c.695-.6,1.448-1.127,2.176-1.685C1758,707.344,1758.107,707.272,1758.221,707.193Zm4.173,2.584c.193-.016.533-.031.87-.075a6.472,6.472,0,0,0,2.56-.858.49.49,0,0,0,.19-.768c-.225-.254-.476-.2-.736-.047a5.9,5.9,0,0,1-2.828.757,5.375,5.375,0,0,1-3.027-.747c-.229-.14-.482-.171-.636.06a.77.77,0,0,0-.074.554c.031.123.209.228.343.306A6.6,6.6,0,0,0,1762.394,709.777Z" transform="translate(-605.001 -405.002)"/><rect class="b" width="20" height="20" transform="translate(1147.001 292)"/></g></svg>