<svg xmlns="http://www.w3.org/2000/svg" width="20" height="20" viewBox="0 0 20 20"><defs><style>.a{fill:#66c3f5;}.b{fill:none;}</style></defs><g transform="translate(-1148 -290)"><path class="a" d="M3760.935,181.235a1.311,1.311,0,0,1-.919-.914,1.706,1.706,0,0,1-.042-.4q0-8.677,0-17.354a1.216,1.216,0,0,1,1.24-1.327c.059,0,.118,0,.177,0q5.065,0,10.13,0a1.232,1.232,0,0,1,1.174.55,1.583,1.583,0,0,1,.209.758q.019,7.048.01,14.1c0,1.036-.023,2.072.008,3.107a1.365,1.365,0,0,1-.97,1.49Zm.387-10.734q0,3.246,0,6.492c0,.428.074.5.5.5h9.245c.424,0,.5-.074.5-.5q0-6.479,0-12.959c0-.458-.07-.527-.523-.527h-9.169c-.488,0-.549.061-.549.552Q3761.322,167.281,3761.322,170.5Zm5.114,9.969v-.027a6,6,0,0,0,.655,0,.761.761,0,0,0,.716-.8c.005-.244.006-.488,0-.732a.74.74,0,0,0-.689-.764,9.649,9.649,0,0,0-1.358,0,.732.732,0,0,0-.677.723c-.012.277-.012.556,0,.833a.747.747,0,0,0,.674.728C3765.981,180.461,3766.209,180.458,3766.436,180.47Zm0-17.723h.88a.284.284,0,0,0,.32-.282.28.28,0,0,0-.3-.307q-.892-.014-1.785,0a.285.285,0,0,0-.308.3c0,.2.136.294.335.293Z" transform="translate(-2607.973 128.765)"/><rect class="b" width="20" height="20" transform="translate(1148 290)"/></g></svg>