<svg xmlns="http://www.w3.org/2000/svg" xmlns:xlink="http://www.w3.org/1999/xlink" width="20" height="20" viewBox="0 0 20 20"><defs><style>.a{fill:url(#a);}.b{fill:none;}</style><linearGradient id="a" x1="0.5" y1="1" x2="0.5" gradientUnits="objectBoundingBox"><stop offset="0" stop-color="#62bcf7"/><stop offset="1" stop-color="#6bccf4"/></linearGradient></defs><g transform="translate(-1148 -412)"><path class="a" d="M1769.561,823.706q-.012-2.139-.021-4.278c0-.209,0-.418,0-.631-.062,0-.1-.006-.139-.006a15.408,15.408,0,0,1-2.639-.215,10.514,10.514,0,0,1-3.43-1.174c-.415-.236-.8-.519-1.22-.79a8.643,8.643,0,0,1-1.933,1.175,12.663,12.663,0,0,1-4.7.993c-.259.009-.519,0-.785,0,0,.065-.008.1-.008.142,0,2.874,0,5.749.01,8.623a5.47,5.47,0,0,0,.794,2.825,7.856,7.856,0,0,0,1.956,2.152,17.334,17.334,0,0,0,4.631,2.471.228.228,0,0,0,.147-.01,20.41,20.41,0,0,0,2.95-1.364,10.935,10.935,0,0,0,2.9-2.284,5.844,5.844,0,0,0,1.512-4C1769.573,826.128,1769.568,824.917,1769.561,823.706Zm-8.158,5.916-4.229-3.868.972-.784,2.571,1.954a22.188,22.188,0,0,1,5.938-5.3l.438.489A24.948,24.948,0,0,0,1761.4,829.622Z" transform="translate(-603.687 -403.612)"/><rect class="b" width="20" height="20" transform="translate(1148.001 412)"/></g></svg>